<?xml version="1.0" encoding="utf-8"?>
<!-- Generator: Adobe Illustrator 17.0.0, SVG Export Plug-In . SVG Version: 6.00 Build 0)  -->
<!DOCTYPE svg PUBLIC "-//W3C//DTD SVG 1.1//EN" "http://www.w3.org/Graphics/SVG/1.1/DTD/svg11.dtd">
<svg version="1.1" id="Слой_1" xmlns="http://www.w3.org/2000/svg" xmlns:xlink="http://www.w3.org/1999/xlink" x="0px" y="0px"
	 width="32.339px" height="50px" viewBox="-7.027 -11.389 32.339 50" enable-background="new -7.027 -11.389 32.339 50"
	 xml:space="preserve">
<g>
	<g>
		<path fill="#3C3C3C" d="M9.142-8.307c7.216,0,13.085,5.87,13.085,13.085V22.44c0,7.216-5.87,13.085-13.085,13.085
			S-3.943,29.656-3.943,22.44V4.779C-3.943-2.435,1.926-8.307,9.142-8.307 M9.142-11.389L9.142-11.389
			c-8.93,0-16.169,7.24-16.169,16.169v17.661c0,8.93,7.24,16.169,16.169,16.169l0,0c8.93,0,16.169-7.24,16.169-16.169V4.779
			C25.309-4.151,18.072-11.389,9.142-11.389L9.142-11.389z"/>
	</g>
</g>
</svg>
