<?xml version="1.0" encoding="utf-8"?>
<!-- Generator: Adobe Illustrator 17.0.0, SVG Export Plug-In . SVG Version: 6.00 Build 0)  -->
<!DOCTYPE svg PUBLIC "-//W3C//DTD SVG 1.1//EN" "http://www.w3.org/Graphics/SVG/1.1/DTD/svg11.dtd">
<svg version="1.1" id="Capa_1" xmlns="http://www.w3.org/2000/svg" xmlns:xlink="http://www.w3.org/1999/xlink" x="0px" y="0px"
	 width="44.238px" height="44.238px" viewBox="0 0 44.238 44.238" enable-background="new 0 0 44.238 44.238" xml:space="preserve">
<g>
	<g>
		<path fill="#FFFFFF" d="M22.119,0.001c12.197,0,22.119,9.922,22.119,22.118s-9.922,22.118-22.119,22.118S0,34.315,0,22.119
			S9.924,0.001,22.119,0.001z M22.119,42.737c11.369,0,20.619-9.249,20.619-20.618c0-11.368-9.25-20.618-20.619-20.618
			S1.5,10.751,1.5,22.119C1.5,33.488,10.75,42.737,22.119,42.737z"/>
		<path fill="#FFFFFF" d="M19.571,14.354c0.192,0,0.384,0.072,0.53,0.22l7.328,7.334c0.292,0.293,0.292,0.768,0,1.061l-7.328,7.333
			c-0.293,0.293-0.768,0.293-1.061,0c-0.293-0.293-0.293-0.768,0-1.061l6.798-6.803l-6.798-6.805c-0.292-0.293-0.292-0.769,0-1.061
			C19.187,14.426,19.379,14.354,19.571,14.354z"/>
	</g>
</g>
</svg>
