<?xml version="1.0" encoding="utf-8"?>
<!-- Generator: Adobe Illustrator 17.0.0, SVG Export Plug-In . SVG Version: 6.00 Build 0)  -->
<!DOCTYPE svg PUBLIC "-//W3C//DTD SVG 1.1//EN" "http://www.w3.org/Graphics/SVG/1.1/DTD/svg11.dtd">
<svg version="1.1" id="Слой_1" xmlns="http://www.w3.org/2000/svg" xmlns:xlink="http://www.w3.org/1999/xlink" x="0px" y="0px"
	 width="92.402px" height="159.528px" viewBox="0 0 92.402 159.528" enable-background="new 0 0 92.402 159.528"
	 xml:space="preserve">
<g>
	<path fill="#FFFFFF" d="M11.057,114.223h0.65c0.27,0,0.438,0.047,0.506,0.141c0.068,0.094,0.101,0.304,0.101,0.631v6.549
		c0,0.319-0.014,0.505-0.043,0.558c-0.029,0.053-0.075,0.111-0.138,0.175c-0.063,0.063-0.175,0.095-0.334,0.095h-0.742v0.46h3.875
		v-0.46h-0.711c-0.168,0-0.298-0.03-0.392-0.089c-0.094-0.059-0.152-0.118-0.175-0.178c-0.022-0.059-0.034-0.23-0.034-0.512v-7.315
		h4.157v7.266c0,0.331-0.037,0.552-0.11,0.662c-0.074,0.11-0.241,0.166-0.503,0.166h-0.662v0.46h3.839v-0.46H19.74
		c-0.159,0-0.295-0.026-0.408-0.077c-0.113-0.051-0.182-0.113-0.209-0.187c-0.027-0.074-0.04-0.245-0.04-0.515v-6.524
		c0-0.376,0.04-0.611,0.12-0.705c0.08-0.094,0.234-0.141,0.463-0.141h0.674v-0.46h-9.284V114.223z"/>
	<path fill="#FFFFFF" d="M80.102,114.45c-0.532-0.458-1.303-0.687-2.314-0.687h-4.475v0.46h0.671c0.296,0,0.497,0.041,0.604,0.123
		c0.107,0.082,0.16,0.214,0.16,0.399v7.229c0,0.123-0.042,0.22-0.126,0.291c-0.084,0.072-0.217,0.108-0.397,0.108h-0.912v0.46h4.36
		v-0.46h-1.03c-0.193,0-0.345-0.049-0.46-0.148c-0.086-0.077-0.129-0.206-0.129-0.386v-3.097h1.617c0.988,0,1.819-0.268,2.493-0.803
		c0.489-0.388,0.735-0.953,0.735-1.692C80.899,115.506,80.633,114.907,80.102,114.45z M78.971,117.807
		c-0.345,0.325-0.907,0.488-1.686,0.488h-1.23v-3.551c0-0.213,0.061-0.362,0.181-0.448c0.12-0.086,0.407-0.129,0.86-0.129
		c0.686,0,1.178,0.067,1.478,0.203c0.3,0.135,0.528,0.342,0.683,0.622c0.155,0.28,0.232,0.682,0.232,1.205
		C79.489,116.945,79.317,117.482,78.971,117.807z"/>
	<g>
		<path fill="#FFFFFF" d="M27.699,114.45c-0.532-0.458-1.303-0.687-2.314-0.687h-4.474v0.46h0.671c0.296,0,0.497,0.041,0.604,0.123
			c0.107,0.082,0.16,0.214,0.16,0.399v7.229c0,0.123-0.042,0.22-0.126,0.291c-0.084,0.072-0.217,0.108-0.397,0.108h-0.911v0.46h4.36
			v-0.46h-1.03c-0.192,0-0.345-0.049-0.46-0.148c-0.086-0.077-0.129-0.206-0.129-0.386v-3.097h1.617
			c0.988,0,1.819-0.268,2.493-0.803c0.49-0.388,0.735-0.953,0.735-1.692C28.497,115.506,28.231,114.907,27.699,114.45z
			 M26.569,117.807c-0.345,0.325-0.907,0.488-1.686,0.488h-1.23v-3.551c0-0.213,0.06-0.362,0.18-0.448
			c0.12-0.086,0.407-0.129,0.86-0.129c0.686,0,1.178,0.067,1.478,0.203c0.3,0.135,0.528,0.342,0.683,0.622
			c0.155,0.28,0.233,0.682,0.233,1.205C27.086,116.945,26.914,117.482,26.569,117.807z"/>
		<path fill="#FFFFFF" d="M34.501,114.223h0.662c0.249,0,0.413,0.036,0.491,0.108c0.078,0.072,0.117,0.23,0.117,0.476v0.153
			l-4.305,5.634v-5.598c0-0.335,0.037-0.548,0.11-0.638c0.074-0.09,0.237-0.135,0.491-0.135h0.711v-0.46h-3.875v0.46h0.65
			c0.265,0,0.433,0.047,0.503,0.141c0.07,0.094,0.104,0.304,0.104,0.631v6.549c0,0.331-0.036,0.552-0.108,0.662
			c-0.072,0.11-0.207,0.166-0.408,0.166h-0.742v0.46h3.875v-0.46h-0.711c-0.176,0-0.316-0.036-0.42-0.107
			c-0.104-0.072-0.16-0.158-0.168-0.258c-0.008-0.1-0.012-0.274-0.012-0.524l4.305-5.685v5.746c0,0.331-0.036,0.552-0.107,0.662
			c-0.072,0.11-0.238,0.166-0.5,0.166h-0.662v0.46h3.82v-0.46h-0.595c-0.168,0-0.307-0.027-0.417-0.08
			c-0.11-0.053-0.179-0.118-0.205-0.194c-0.027-0.075-0.04-0.244-0.04-0.506v-6.524c0-0.421,0.051-0.667,0.153-0.739
			c0.102-0.071,0.245-0.107,0.429-0.107h0.674v-0.46h-3.82V114.223z"/>
		<path fill="#FFFFFF" d="M52.662,114.177c-0.669-0.402-1.385-0.604-2.149-0.604c-0.113,0-0.225,0.007-0.337,0.018v-9.355h1v-0.328
			h-3.703v0.328h1v1.048l-4.702,7.335v-8.383h1v-0.328h-3.703v0.328h1v9.528h-3.058v0.46h0.699c0.372,0,0.558,0.152,0.558,0.454
			v7.211c0,0.323-0.174,0.484-0.521,0.484h-0.736v0.46h4.164v-0.46h-0.944c-0.233,0-0.401-0.039-0.503-0.117
			c-0.102-0.077-0.153-0.225-0.153-0.442v-7.187c0-0.269,0.135-0.405,0.404-0.405h1.286c0.624,0,1.141,0.153,1.549,0.46
			c0.408,0.306,0.708,1.04,0.9,2.201h0.429l-0.123-3.121H43.77v-0.195l4.702-7.352v7.974c-0.645,0.406-1.153,0.966-1.525,1.679
			c-0.374,0.717-0.561,1.522-0.561,2.413c0,0.903,0.193,1.726,0.58,2.468c0.386,0.742,0.898,1.312,1.536,1.711
			c0.638,0.399,1.32,0.598,2.048,0.598c0.744,0,1.448-0.203,2.112-0.61c0.664-0.406,1.187-0.974,1.567-1.701
			c0.381-0.728,0.57-1.544,0.57-2.447c0-0.903-0.189-1.716-0.567-2.437C53.854,115.141,53.331,114.58,52.662,114.177z
			 M52.901,120.809c-0.235,0.613-0.551,1.061-0.947,1.343c-0.397,0.282-0.857,0.423-1.38,0.423c-0.748,0-1.376-0.31-1.883-0.932
			c-0.507-0.621-0.76-1.744-0.76-3.367c0-1.496,0.247-2.576,0.742-3.238c0.495-0.662,1.141-0.993,1.938-0.993
			c0.503,0,0.959,0.148,1.368,0.442c0.409,0.294,0.723,0.747,0.944,1.358c0.221,0.611,0.331,1.46,0.331,2.548
			C53.254,119.39,53.136,120.195,52.901,120.809z"/>
		<path fill="#FFFFFF" d="M63.032,118.926c-0.427-0.387-1.068-0.67-1.922-0.85c0.69-0.208,1.208-0.492,1.551-0.851
			c0.344-0.36,0.515-0.797,0.515-1.311c0-0.617-0.247-1.129-0.739-1.538c-0.493-0.408-1.203-0.612-2.131-0.612h-4.728v0.46h0.798
			c0.196,0,0.345,0.044,0.447,0.132c0.102,0.088,0.153,0.218,0.153,0.39v7.266c0,0.094-0.052,0.178-0.156,0.251
			s-0.269,0.111-0.494,0.111h-0.748v0.46h4.587c0.72,0,1.362-0.121,1.929-0.362c0.566-0.241,0.971-0.536,1.214-0.884
			c0.244-0.347,0.365-0.747,0.365-1.197C63.673,119.8,63.46,119.312,63.032,118.926z M58.289,114.694
			c0-0.18,0.059-0.305,0.178-0.377c0.118-0.071,0.425-0.107,0.92-0.107c0.699,0,1.19,0.056,1.474,0.168
			c0.284,0.112,0.501,0.291,0.65,0.536c0.149,0.245,0.224,0.585,0.224,1.022c0,0.706-0.156,1.214-0.469,1.524
			c-0.313,0.31-0.733,0.465-1.26,0.465h-1.717V114.694z M61.662,121.891c-0.347,0.321-0.885,0.482-1.613,0.482h-1.098
			c-0.249,0-0.422-0.041-0.518-0.123c-0.096-0.081-0.144-0.204-0.144-0.368v-3.496h1.865c0.633,0,1.13,0.179,1.49,0.537
			c0.36,0.358,0.54,0.848,0.54,1.469C62.183,121.07,62.009,121.57,61.662,121.891z"/>
		<path fill="#FFFFFF" d="M70.508,114.177c-0.669-0.402-1.385-0.604-2.149-0.604c-0.703,0-1.38,0.204-2.03,0.61
			c-0.65,0.407-1.162,0.969-1.536,1.687c-0.374,0.717-0.561,1.522-0.561,2.413c0,0.903,0.194,1.726,0.58,2.468
			c0.386,0.742,0.898,1.312,1.536,1.711c0.638,0.399,1.321,0.598,2.049,0.598c0.744,0,1.448-0.203,2.112-0.61
			c0.664-0.406,1.187-0.974,1.567-1.701c0.381-0.728,0.57-1.544,0.57-2.447c0-0.903-0.189-1.716-0.567-2.437
			C71.699,115.141,71.176,114.58,70.508,114.177z M70.747,120.809c-0.235,0.613-0.551,1.061-0.947,1.343
			c-0.397,0.282-0.857,0.423-1.38,0.423c-0.748,0-1.376-0.31-1.883-0.932c-0.507-0.621-0.761-1.744-0.761-3.367
			c0-1.496,0.248-2.576,0.742-3.238c0.495-0.662,1.141-0.993,1.938-0.993c0.503,0,0.959,0.148,1.368,0.442
			c0.409,0.294,0.723,0.747,0.944,1.358c0.221,0.611,0.331,1.46,0.331,2.548C71.099,119.39,70.982,120.195,70.747,120.809z"/>
		<path fill="#FFFFFF" d="M53.755,79.481l-0.065-0.383c-0.226-1.326-0.704-2.752-1.346-4.016l-0.007-0.014l-0.006-0.014
			c-0.211-0.494-0.861-0.719-1.377-0.719H40.942c-0.563,0-1.013,0.267-1.266,0.751c-0.612,1.089-1.067,2.472-1.324,4.01
			l-0.064,0.384h-1.856l-0.197-6.671h2.16l2.511-7.982c-0.237-0.085-0.468-0.178-0.69-0.277c-1.359-0.608-2.576-1.506-3.616-2.669
			c-0.52-0.585-0.983-1.221-1.376-1.893c-0.391-0.668-0.743-1.431-1.048-2.269c-0.598-1.643-0.862-3.273-0.786-4.847
			c0.076-1.579,0.474-3.079,1.185-4.458c0.01-0.019,0.02-0.038,0.03-0.057h-5.31V46.81l2.004-0.44l3.4-29.431H33.7v-1.926h5.806
			v1.83h-1.054v1.235l7.109,8.112l7.585-9.017v-0.33h-0.91v-1.591h5.566v1.83h-0.991l3.774,29.538l1.72,0.442v1.583h-5.158
			c0.023,0.06,0.045,0.12,0.067,0.179c0.808,2.22,1.032,4.405,0.666,6.495c-0.368,2.096-1.291,3.976-2.746,5.587
			c-1.182,1.31-2.647,2.37-4.359,3.155l2.849,8.749h2.232l-0.707,6.671H53.755z M49.536,72.81l-2.386-7.587
			c-0.838,0.159-1.667,0.241-2.47,0.241c-0.634,0-1.249-0.048-1.843-0.142l-2.149,7.487H49.536z M43.576,62.749
			c0.723,0.258,1.471,0.401,2.229,0.426c0.095,0.003,0.189,0.005,0.283,0.005c0.138,0,0.277-0.004,0.417-0.011L44.91,58.1
			L43.576,62.749z M47.118,52.834l3.033,9.312c0.807-0.431,1.487-0.971,2.027-1.607c0.793-0.934,1.346-1.995,1.643-3.152
			c0.302-1.177,0.413-2.406,0.327-3.653c-0.086-1.253-0.302-2.362-0.642-3.297c-0.347-0.955-0.692-1.754-1.025-2.375
			c-0.326-0.61-0.754-1.211-1.272-1.789c-0.513-0.573-1.112-1.071-1.779-1.48c-0.662-0.406-1.376-0.701-2.124-0.876
			c-0.577-0.135-1.185-0.203-1.807-0.203c-0.19,0-0.384,0.006-0.578,0.019c-0.834,0.054-1.623,0.215-2.344,0.477
			c-1.224,0.446-2.262,1.08-3.085,1.887c-0.821,0.804-1.432,1.755-1.815,2.826c-0.386,1.079-0.545,2.294-0.474,3.611
			c0.072,1.333,0.372,2.731,0.89,4.156c0.506,1.389,1.158,2.574,1.939,3.523c0.543,0.66,1.148,1.216,1.802,1.66l2.843-9.038H47.118z
			 M46.952,41.502c1.272,0,2.513,0.195,3.687,0.579c1.427,0.468,2.731,1.268,3.874,2.379c0.672,0.653,1.268,1.44,1.776,2.341
			L57.03,46.6l-3.184-26.794l-7.105,8.069c0.054,0.069,0.113,0.144,0.174,0.222c1.062,1.352,3.272,4.164,3.272,6.773
			c0,2.092-0.918,3.401-1.688,4.13c-0.931,0.881-2.19,1.407-3.37,1.407c-1.043,0-2.087-0.585-2.866-1.606
			c-0.827-1.084-1.282-2.582-1.282-4.219c0-2.667,1.626-5.115,2.408-6.139l-5.886-7.287l-3.077,25.339l1.176,0.294
			c0.517-0.683,1.121-1.321,1.799-1.9c1.19-1.017,2.608-1.829,4.216-2.414c1.471-0.536,2.999-0.855,4.543-0.949
			C46.424,41.51,46.691,41.502,46.952,41.502z M44.64,30.619c-0.603,0.771-1.878,2.561-1.878,3.917c0,1.742,0.809,3.723,1.969,3.779
			c0.056,0.003,0.112,0.004,0.167,0.004c2.128,0,2.357-2.043,2.357-2.922C47.255,33.502,45.423,31.421,44.64,30.619z"/>
		<g>
			<path fill="#FFFFFF" d="M40.35,14.168v3.517h-1.054v0.074l6.252,7.134l6.064-7.208h-0.219v-3.278H55.1
				c-2.701-1.594-5.848-2.51-9.204-2.51c-3.185,0-6.181,0.825-8.786,2.27H40.35z"/>
			<path fill="#FFFFFF" d="M33.729,47.192l-0.23-0.057l3.407-28.058l0.218,0.27c0.755-0.019,8.089,9.106,8.089,9.106l0.489-0.553
				l-0.049-0.067l8.806-10l0.017,0.142l0.126-0.142c0,0,2.342,20.021,2.945,25.986l0.233,1.957c0.359,0.714,1.703,1.512,2.7,2.028
				h0.98v-0.086l-1.64-0.422l-3.968-31.057h1.106v-0.143H53.99v1.385l-8.416,10.004l-7.965-9.089v-2.396h1.054v-0.143h-4.074
				c-0.015,0.012-0.03,0.024-0.045,0.036v0.203h1.101l-3.577,30.97l-1.93,0.424v0.027h3.539
				C33.692,47.423,33.71,47.315,33.729,47.192z"/>
			<path fill="#FFFFFF" d="M82.249,108.834v-4.598H68.598v-0.314l11.71-9.439l-3.07,1.385c-2.618,1.182-5.688,2.563-8.639,3.886
				V45.395h0.484V27.051h-0.025l-2.561-23.17l-1.086,13.474C61.447,10.705,54.183,6.24,45.895,6.24
				c-8.635,0-16.157,4.846-19.994,11.961l-1.583-14.32l-1.867,23.17H22.45v3.628h1.489v0.431H22.45v1.964h1.489v0.431H22.45v1.964
				h1.489V35.9H22.45v1.964h1.489v0.431H22.45v1.964h1.489v0.431H22.45v1.964h1.489v0.431H22.45v2.311h0.743V99.37
				c-2.895-1.346-5.983-2.787-8.583-4.002l-3.011-1.407l11.593,9.669v0.606H9.686v4.598H5.519v19.685h4.167v4.598h6.743
				c-0.645,0.71-1.108,1.221-1.171,1.291l-1.923,2.123l2.462-1.463c1.215-0.721,2.304-1.368,3.284-1.951h15.34l-6.774,15.734
				l0.467-0.691l10.178-15.043h0.568l0.54,5.574c0.016,0.163,0.123,0.304,0.277,0.362c0.049,0.019,0.101,0.028,0.152,0.028
				c0.108,0,0.214-0.04,0.295-0.117l4.211-3.951l1.632,18.868l1.773-18.22l3.408,3.198c0.081,0.076,0.187,0.117,0.295,0.117
				c0.051,0,0.103-0.009,0.152-0.027c0.154-0.058,0.261-0.198,0.277-0.362l0.531-5.468h0.649l10.575,15.629l-6.729-15.629h15.472
				c0.934,0.555,1.965,1.168,3.107,1.846l2.462,1.463l-1.923-2.123c-0.06-0.066-0.482-0.531-1.075-1.185h7.309v-4.598h4.023v-19.685
				H82.249z M85.41,127.658H6.381v-17.961h24.911l-1.922-2.142l3.414-0.683l-0.747-3.084l0.566,0.018
				c0.434,0.014,4.909,0.57,5.681,0.666c-2.062-13.729-7.345-48.974-8.189-55.27H28.45v-3.071l2.079-0.456l3.222-27.893h-0.895
				v-0.354c-3.174,3.273-5.131,7.732-5.131,12.641v51.275l-2.168-2.956l2.168,4.799v18.288c-0.704-0.326-1.453-0.673-2.234-1.036
				V45.395h1.413V27.051h-0.025l-0.462-4.183c2.592-8.293,10.343-14.329,19.479-14.329c8.777,0,16.275,5.57,19.149,13.361
				l-0.415,5.151h-0.001v3.628h1.489v0.431h-1.489v1.964h1.489v0.431h-1.489v1.964h1.489V35.9h-1.489v1.964h1.489v0.431h-1.489
				v1.964h1.489v0.431h-1.489v1.964h1.489v0.431h-1.489v2.311h1.671v55.389c-0.768,0.344-1.516,0.678-2.234,0.998V83.803l2.22-4.914
				l-2.22,3.028V30.068c0-5.055-2.076-9.634-5.419-12.931v0.789h-0.877l3.58,28.02l1.799,0.463v3.081h-1.683
				c-0.904,6.792-5.6,42.07-7.461,55.468c1.059-0.132,5.129-0.635,5.541-0.649l0.566-0.018l-0.747,3.084l3.414,0.683l-1.471,1.64
				H85.41V127.658z"/>
		</g>
		<path fill="#FFFFFF" d="M38.853,92.578v0.581h3.102v8.113h-0.778v0.327h2.138c-0.1,0.139-0.157,0.303-0.157,0.474
			c0,0.884,1.333,1.441,2.962,1.441c1.611,0,2.925-0.557,2.925-1.441c0-0.171-0.054-0.336-0.151-0.474h2.651v-0.327h-0.778v-8.113
			h2.29v-0.581h-1.381V79.2h1.381v-0.581h-5.59V79.2h1.381v5.904h-5.787V79.2h1.381v-0.581h-5.59V79.2h1.381v13.378H38.853z
			 M44.677,101.272h-0.197c-0.111-0.042-0.232-0.066-0.358-0.066c-0.133,0-0.257,0.024-0.37,0.066h-0.204v-4.127h1.148
			c1.148,0,2,0.933,2,2.063S45.825,101.272,44.677,101.272z M43.062,85.801h5.787v6.776h-1.381v0.581h1.708v8.113h-0.707
			c-0.111-0.042-0.234-0.066-0.367-0.066c-0.519,0-0.944,0.393-0.944,0.868c0,0.262,0.185,0.573,0.426,0.704
			c-0.203,0.246-0.926,0.426-1.462,0.426c-0.555,0-1.315-0.18-1.5-0.426c0.241-0.131,0.445-0.442,0.445-0.704
			c0-0.174-0.058-0.338-0.156-0.474h0.434c1.685,0,3.055-1.064,3.055-2.391c0-1.326-1.352-2.456-3.018-2.456h-1.833v-3.593h0.896
			v-0.581h-1.381V85.801z"/>
	</g>
</g>
</svg>
