<?xml version="1.0" encoding="utf-8"?>
<!-- Generator: Adobe Illustrator 17.0.0, SVG Export Plug-In . SVG Version: 6.00 Build 0)  -->
<!DOCTYPE svg PUBLIC "-//W3C//DTD SVG 1.1//EN" "http://www.w3.org/Graphics/SVG/1.1/DTD/svg11.dtd">
<svg version="1.1" id="Слой_1" xmlns="http://www.w3.org/2000/svg" xmlns:xlink="http://www.w3.org/1999/xlink" x="0px" y="0px"
	 width="188px" height="343.014px" viewBox="0 0 188 343.014" enable-background="new 0 0 188 343.014" xml:space="preserve">
<g>
	<path fill="#FFFFFF" d="M14.274,252.325h1.486c0.617,0,1.002,0.108,1.156,0.323c0.155,0.214,0.232,0.696,0.232,1.444v14.976
		c0,0.729-0.033,1.154-0.098,1.276c-0.065,0.122-0.171,0.254-0.316,0.399c-0.145,0.145-0.399,0.218-0.764,0.218h-1.696v1.051h8.862
		v-1.051H21.51c-0.383,0-0.682-0.068-0.897-0.204c-0.215-0.135-0.348-0.271-0.4-0.407c-0.051-0.135-0.077-0.525-0.077-1.171v-16.728
		h9.507v16.617c0,0.757-0.084,1.262-0.252,1.515c-0.168,0.252-0.552,0.379-1.15,0.379h-1.515v1.051h8.778v-1.051H34.13
		c-0.364,0-0.675-0.059-0.933-0.176c-0.257-0.117-0.416-0.259-0.477-0.427c-0.061-0.168-0.091-0.561-0.091-1.178v-14.92
		c0-0.86,0.091-1.398,0.273-1.612c0.182-0.216,0.535-0.323,1.059-0.323h1.542v-1.051h-21.23V252.325z"/>
	<path fill="#FFFFFF" d="M52.331,252.844c-1.216-1.047-2.98-1.571-5.291-1.571H36.809v1.051h1.535c0.676,0,1.136,0.094,1.38,0.281
		c0.244,0.187,0.366,0.49,0.366,0.911v16.532c0,0.281-0.096,0.503-0.289,0.666c-0.193,0.164-0.495,0.246-0.908,0.246h-2.084v1.051
		h9.97v-1.051h-2.356c-0.439,0-0.79-0.113-1.052-0.337c-0.196-0.177-0.295-0.471-0.295-0.883v-7.081h3.697
		c2.26,0,4.159-0.612,5.7-1.837c1.121-0.888,1.681-2.178,1.681-3.87C54.156,255.26,53.547,253.891,52.331,252.844z M49.747,260.521
		c-0.789,0.743-2.074,1.115-3.856,1.115h-2.814v-8.12c0-0.487,0.138-0.828,0.413-1.024c0.275-0.196,0.931-0.294,1.967-0.294
		c1.568,0,2.694,0.154,3.38,0.463c0.686,0.308,1.206,0.783,1.561,1.422c0.355,0.64,0.532,1.559,0.532,2.756
		C50.93,258.551,50.536,259.778,49.747,260.521z"/>
	<path fill="#FFFFFF" d="M67.885,252.325h1.514c0.57,0,0.945,0.082,1.122,0.246c0.178,0.164,0.267,0.526,0.267,1.088v0.35
		l-9.844,12.884v-12.802c0-0.766,0.084-1.253,0.252-1.458c0.168-0.205,0.542-0.309,1.122-0.309h1.627v-1.051h-8.862v1.051h1.486
		c0.607,0,0.991,0.108,1.149,0.323c0.159,0.214,0.239,0.696,0.239,1.444v14.976c0,0.757-0.082,1.262-0.246,1.515
		c-0.164,0.252-0.474,0.379-0.932,0.379h-1.696v1.051h8.862v-1.051h-1.627c-0.402,0-0.722-0.082-0.961-0.245
		c-0.238-0.164-0.366-0.361-0.385-0.589c-0.019-0.228-0.028-0.628-0.028-1.197l9.844-13.001v13.139c0,0.757-0.082,1.262-0.246,1.515
		c-0.164,0.252-0.545,0.379-1.143,0.379h-1.514v1.051h8.736v-1.051h-1.36c-0.384,0-0.701-0.062-0.954-0.182
		c-0.252-0.122-0.409-0.269-0.47-0.443c-0.061-0.172-0.091-0.558-0.091-1.156v-14.92c0-0.963,0.117-1.526,0.35-1.691
		c0.234-0.163,0.561-0.245,0.982-0.245h1.542v-1.051h-8.736V252.325z"/>
	<path fill="#FFFFFF" d="M109.416,252.219c-1.529-0.92-3.167-1.381-4.915-1.381c-0.259,0-0.516,0.017-0.771,0.041v-21.393h2.286
		v-0.75h-8.467v0.75h2.286v2.396l-10.753,16.774v-19.171h2.286v-0.75H82.9v0.75h2.287v21.788h-6.992v1.051h1.598
		c0.851,0,1.276,0.347,1.276,1.038v16.491c0,0.738-0.397,1.108-1.192,1.108h-1.683v1.051h9.521v-1.051h-2.16
		c-0.533,0-0.916-0.09-1.15-0.267c-0.234-0.177-0.35-0.513-0.35-1.01V253.25c0-0.616,0.308-0.925,0.924-0.925h2.941
		c1.428,0,2.609,0.35,3.542,1.052c0.934,0.701,1.62,2.378,2.059,5.034h0.981l-0.281-7.138h-5.14v-0.445l10.753-16.813v18.235
		c-1.474,0.929-2.638,2.208-3.487,3.84c-0.855,1.64-1.283,3.48-1.283,5.518c0,2.065,0.442,3.947,1.325,5.644
		c0.884,1.697,2.054,3.001,3.513,3.912c1.458,0.911,3.019,1.367,4.684,1.367c1.701,0,3.312-0.465,4.831-1.395
		c1.518-0.929,2.713-2.227,3.582-3.89c0.87-1.665,1.304-3.53,1.304-5.596c0-2.065-0.431-3.924-1.296-5.573
		C112.141,254.426,110.945,253.141,109.416,252.219z M109.963,267.385c-0.538,1.402-1.259,2.426-2.167,3.07
		c-0.907,0.646-1.959,0.968-3.155,0.968c-1.711,0-3.146-0.71-4.305-2.131c-1.159-1.421-1.739-3.988-1.739-7.699
		c0-3.422,0.565-5.89,1.696-7.405c1.131-1.515,2.609-2.272,4.431-2.272c1.15,0,2.192,0.338,3.127,1.01
		c0.934,0.673,1.654,1.708,2.159,3.106c0.504,1.398,0.757,3.34,0.757,5.826C110.769,264.141,110.501,265.983,109.963,267.385z"/>
	<path fill="#FFFFFF" d="M133.129,263.079c-0.975-0.884-2.441-1.531-4.395-1.943c1.579-0.476,2.762-1.126,3.548-1.947
		c0.786-0.823,1.178-1.821,1.178-2.998c0-1.411-0.565-2.582-1.69-3.517c-1.127-0.933-2.751-1.4-4.874-1.4h-10.811v1.051h1.824
		c0.448,0,0.789,0.101,1.023,0.302c0.234,0.202,0.35,0.498,0.35,0.891v16.617c0,0.216-0.118,0.407-0.357,0.575
		c-0.239,0.168-0.616,0.253-1.13,0.253h-1.711v1.051h10.489c1.646,0,3.115-0.276,4.41-0.828c1.295-0.552,2.221-1.226,2.776-2.022
		c0.557-0.794,0.834-1.707,0.834-2.736C134.595,265.079,134.107,263.964,133.129,263.079z M122.283,253.403
		c0-0.411,0.136-0.697,0.407-0.861c0.271-0.163,0.972-0.245,2.104-0.245c1.598,0,2.722,0.128,3.372,0.385
		c0.649,0.257,1.145,0.665,1.486,1.226c0.341,0.56,0.512,1.339,0.512,2.337c0,1.615-0.357,2.776-1.073,3.486
		c-0.715,0.71-1.676,1.064-2.882,1.064h-3.926V253.403z M129.996,269.86c-0.795,0.734-2.024,1.101-3.688,1.101h-2.511
		c-0.57,0-0.965-0.094-1.185-0.281c-0.22-0.186-0.33-0.467-0.33-0.841v-7.994h4.264c1.448,0,2.584,0.409,3.406,1.227
		c0.823,0.819,1.235,1.938,1.235,3.359C131.189,267.984,130.791,269.126,129.996,269.86z"/>
	<path fill="#FFFFFF" d="M150.225,252.219c-1.529-0.92-3.166-1.381-4.915-1.381c-1.608,0-3.155,0.466-4.641,1.395
		c-1.486,0.931-2.658,2.215-3.513,3.857c-0.856,1.64-1.283,3.48-1.283,5.518c0,2.065,0.443,3.947,1.326,5.644
		c0.883,1.697,2.054,3.001,3.512,3.912c1.458,0.911,3.02,1.367,4.685,1.367c1.701,0,3.311-0.465,4.83-1.395
		c1.518-0.929,2.713-2.227,3.582-3.89c0.87-1.665,1.304-3.53,1.304-5.596c0-2.065-0.431-3.924-1.296-5.573
		C152.95,254.426,151.753,253.141,150.225,252.219z M150.771,267.385c-0.538,1.402-1.259,2.426-2.167,3.07
		c-0.907,0.646-1.959,0.968-3.155,0.968c-1.711,0-3.146-0.71-4.305-2.131c-1.159-1.421-1.739-3.988-1.739-7.699
		c0-3.422,0.566-5.89,1.697-7.405c1.132-1.515,2.608-2.272,4.431-2.272c1.15,0,2.192,0.338,3.128,1.01
		c0.934,0.673,1.654,1.708,2.159,3.106c0.504,1.398,0.757,3.34,0.757,5.826C151.577,264.141,151.309,265.983,150.771,267.385z"/>
	<path fill="#FFFFFF" d="M172.164,252.844c-1.217-1.047-2.98-1.571-5.291-1.571h-10.232v1.051h1.535
		c0.676,0,1.137,0.094,1.381,0.281c0.244,0.187,0.366,0.49,0.366,0.911v16.532c0,0.281-0.096,0.503-0.289,0.666
		c-0.193,0.164-0.495,0.246-0.909,0.246h-2.084v1.051h9.97v-1.051h-2.355c-0.44,0-0.789-0.113-1.051-0.337
		c-0.198-0.177-0.295-0.471-0.295-0.883v-7.081h3.697c2.26,0,4.16-0.612,5.701-1.837c1.119-0.888,1.68-2.178,1.68-3.87
		C173.988,255.26,173.379,253.891,172.164,252.844z M169.579,260.521c-0.788,0.743-2.074,1.115-3.856,1.115h-2.813v-8.12
		c0-0.487,0.139-0.828,0.413-1.024c0.275-0.196,0.931-0.294,1.966-0.294c1.568,0,2.694,0.154,3.381,0.463
		c0.685,0.308,1.206,0.783,1.561,1.422c0.354,0.64,0.531,1.559,0.531,2.756C170.762,258.551,170.368,259.778,169.579,260.521z"/>
	<path fill="#FFFFFF" d="M111.914,172.878l-0.149-0.875c-0.517-3.032-1.61-6.293-3.079-9.183l-0.016-0.031l-0.014-0.033
		c-0.482-1.13-1.97-1.644-3.149-1.644H82.614c-1.288,0-2.316,0.61-2.895,1.718c-1.399,2.491-2.44,5.652-3.028,9.169l-0.147,0.879
		H72.3l-0.451-15.254h4.938l5.743-18.254c-0.543-0.195-1.07-0.407-1.577-0.634c-3.109-1.391-5.891-3.444-8.27-6.102
		c-1.19-1.337-2.248-2.793-3.146-4.328c-0.893-1.527-1.699-3.273-2.396-5.188c-1.366-3.756-1.971-7.486-1.797-11.084
		c0.173-3.611,1.085-7.041,2.709-10.194c0.022-0.043,0.045-0.087,0.068-0.131H55.978v-3.541l4.584-1.006l7.774-67.303h-2.281v-4.405
		h13.276v4.186h-2.41v2.823l16.256,18.55l17.345-20.619v-0.754h-2.081v-3.638h12.729v4.185h-2.267l8.63,67.547l3.932,1.011v3.621
		h-11.795c0.053,0.138,0.103,0.274,0.153,0.409c1.848,5.076,2.361,10.073,1.524,14.852c-0.841,4.793-2.953,9.092-6.279,12.777
		c-2.703,2.995-6.053,5.419-9.969,7.214l6.515,20.006h5.104l-1.617,15.254H111.914z M102.268,157.623l-5.457-17.349
		c-1.915,0.365-3.811,0.55-5.648,0.552c-1.449,0-2.856-0.109-4.215-0.324l-4.913,17.121H102.268z M88.638,134.617
		c1.654,0.589,3.365,0.917,5.097,0.975c0.216,0.007,0.431,0.011,0.646,0.011c0.316,0,0.634-0.008,0.953-0.024l-3.646-11.592
		L88.638,134.617z M96.739,111.944l6.935,21.294c1.845-0.986,3.401-2.219,4.636-3.675c1.814-2.137,3.078-4.561,3.758-7.207
		c0.692-2.692,0.944-5.502,0.749-8.353c-0.196-2.865-0.69-5.402-1.469-7.54c-0.795-2.184-1.583-4.011-2.343-5.431
		c-0.745-1.394-1.724-2.77-2.909-4.09c-1.174-1.31-2.543-2.449-4.068-3.385c-1.513-0.929-3.147-1.603-4.857-2.003
		c-1.319-0.308-2.71-0.465-4.132-0.465c-0.434,0-0.879,0.014-1.323,0.043c-1.907,0.123-3.711,0.491-5.361,1.091
		c-2.798,1.019-5.172,2.471-7.055,4.315c-1.877,1.838-3.274,4.012-4.15,6.462c-0.883,2.468-1.247,5.246-1.084,8.256
		c0.166,3.048,0.851,6.246,2.036,9.504c1.157,3.177,2.648,5.887,4.433,8.056c1.243,1.509,2.625,2.781,4.121,3.795l6.502-20.667
		H96.739z M96.358,86.031c2.909,0,5.746,0.446,8.432,1.325c3.264,1.069,6.245,2.9,8.859,5.441c1.536,1.494,2.899,3.292,4.06,5.353
		l1.695-0.461l-7.282-61.271L95.874,54.868c0.124,0.159,0.258,0.329,0.399,0.508c2.429,3.091,7.483,9.523,7.483,15.488
		c0,4.785-2.1,7.777-3.861,9.444c-2.129,2.015-5.009,3.218-7.706,3.218c-2.384,0-4.773-1.339-6.553-3.672
		c-1.891-2.479-2.933-5.905-2.933-9.647c0-6.098,3.718-11.698,5.508-14.037L74.752,39.507l-7.036,57.943l2.688,0.672
		c1.183-1.562,2.564-3.021,4.114-4.346c2.721-2.325,5.964-4.182,9.64-5.52c3.364-1.225,6.859-1.956,10.388-2.171
		C95.152,86.049,95.762,86.031,96.358,86.031z M91.071,61.142c-1.378,1.762-4.294,5.856-4.294,8.957
		c0,3.984,1.849,8.513,4.503,8.642c0.129,0.006,0.256,0.009,0.381,0.009c4.865,0,5.39-4.673,5.39-6.681
		C97.051,67.736,92.861,62.977,91.071,61.142z"/>
	<g>
		<path fill="#FFFFFF" d="M81.26,23.525v8.044h-2.41v0.169l14.297,16.315l13.866-16.484h-0.501v-7.496h8.477
			c-6.177-3.644-13.372-5.739-21.048-5.739c-7.283,0-14.133,1.886-20.092,5.192H81.26z"/>
		<path fill="#FFFFFF" d="M66.121,99.041l-0.525-0.131l7.791-64.162l0.499,0.618c1.726-0.044,18.498,20.823,18.498,20.823
			l1.119-1.266l-0.112-0.153l20.138-22.868l0.039,0.325l0.288-0.326c0,0,5.356,45.784,6.736,59.424l0.532,4.476
			c0.822,1.633,3.895,3.458,6.174,4.637h2.24v-0.196l-3.751-0.964l-9.073-71.019h2.529V27.93h-6.79v3.167L93.208,53.974
			L74.992,33.188V27.71h2.41v-0.327h-9.316c-0.034,0.027-0.068,0.055-0.102,0.083v0.464h2.517L62.32,98.75l-4.413,0.969v0.061H66
			C66.037,99.57,66.077,99.324,66.121,99.041z"/>
		<path fill="#FFFFFF" d="M177.074,240.003v-10.515h-31.215v-0.717l26.777-21.585l-7.021,3.168
			c-5.988,2.702-13.008,5.861-19.756,8.886V94.933h1.107V52.984h-0.057L141.052,0l-2.483,30.811
			c-9.063-15.207-25.674-25.417-44.627-25.417c-19.745,0-36.948,11.082-45.723,27.352L44.6,0L40.33,52.984h-0.003v8.297h3.406v0.986
			h-3.406v4.49h3.406v0.986h-3.406v4.49h3.406v0.986h-3.406v4.491h3.406v0.986h-3.406v4.49h3.406v0.986h-3.406v4.49h3.406v0.986
			h-3.406v5.285h1.698v123.426c-6.62-3.079-13.682-6.373-19.626-9.151l-6.885-3.216l26.511,22.11v1.386H11.139v10.515H1.61v45.016
			h9.529v10.515h15.419c-1.474,1.624-2.533,2.793-2.677,2.952l-4.397,4.854l5.631-3.345c2.778-1.65,5.268-3.129,7.51-4.462h35.078
			l-15.49,35.98l1.069-1.58l23.275-34.4h1.298l1.236,12.745c0.036,0.374,0.281,0.694,0.633,0.828
			c0.113,0.042,0.231,0.063,0.348,0.063c0.246,0,0.489-0.092,0.674-0.267l9.63-9.035l3.732,43.146l4.054-41.665l7.793,7.312
			c0.186,0.175,0.429,0.267,0.675,0.267c0.117,0,0.235-0.021,0.348-0.063c0.352-0.132,0.597-0.453,0.633-0.828l1.213-12.504h1.484
			l24.181,35.739l-15.387-35.739h35.38c2.135,1.269,4.494,2.67,7.104,4.22l5.631,3.345l-4.397-4.854
			c-0.137-0.151-1.101-1.215-2.458-2.711h16.713v-10.515h9.2v-45.016H177.074z M184.303,283.047H3.582v-41.073h56.966l-4.396-4.899
			l7.808-1.561l-1.707-7.053l1.294,0.041c0.992,0.032,11.226,1.304,12.992,1.524c-4.715-31.396-16.796-111.991-18.726-126.389
			h-3.763v-7.022l4.755-1.044l7.367-63.785h-2.046v-0.81c-7.258,7.484-11.734,17.682-11.734,28.906v117.253l-4.957-6.761
			l4.957,10.975v41.821c-1.609-0.745-3.323-1.54-5.108-2.369V94.933h3.231V52.984h-0.057l-1.057-9.566
			c5.926-18.964,23.651-32.767,44.543-32.767c20.07,0,37.217,12.738,43.789,30.553l-0.949,11.779h-0.003v8.297h3.406v0.986h-3.406
			v4.49h3.406v0.986h-3.406v4.49h3.406v0.986h-3.406v4.491h3.406v0.986h-3.406v4.49h3.406v0.986h-3.406v4.49h3.406v0.986h-3.406
			v5.285h3.821v126.66c-1.756,0.786-3.467,1.55-5.108,2.282v-41.113l5.076-11.238l-5.076,6.923V59.883
			c0-11.56-4.747-22.032-12.393-29.571v1.803h-2.004l8.186,64.076l4.114,1.058v7.045h-3.848
			c-2.066,15.532-12.807,96.203-17.061,126.842c2.423-0.301,11.728-1.453,12.672-1.484l1.294-0.041l-1.707,7.053l7.808,1.561
			l-3.364,3.749h55.114V283.047z"/>
	</g>
	<path fill="#FFFFFF" d="M77.839,202.828v1.33h7.094v18.552h-1.778v0.748h4.889c-0.229,0.317-0.359,0.693-0.359,1.085
		c0,2.022,3.048,3.295,6.774,3.295c3.683,0,6.689-1.273,6.689-3.295c0-0.392-0.124-0.768-0.346-1.085h6.061v-0.748h-1.778v-18.552
		h5.236v-1.33h-3.158v-30.592h3.158v-1.33H97.538v1.33h3.158v13.5H87.463v-13.5h3.158v-1.33H77.839v1.33h3.158v30.592H77.839z
		 M91.155,222.71h-0.451c-0.253-0.097-0.53-0.151-0.819-0.151c-0.304,0-0.588,0.055-0.846,0.151h-0.467v-9.436h2.625
		c2.625,0,4.573,2.134,4.573,4.718C95.77,220.575,93.78,222.71,91.155,222.71z M87.463,187.332h13.233v15.496h-3.158v1.33h3.906
		v18.552h-1.616c-0.254-0.096-0.535-0.151-0.839-0.151c-1.186,0-2.16,0.898-2.16,1.984c0,0.599,0.423,1.311,0.974,1.61
		c-0.465,0.562-2.117,0.974-3.344,0.974c-1.27,0-3.006-0.412-3.43-0.974c0.551-0.299,1.017-1.01,1.017-1.61
		c0-0.399-0.132-0.772-0.357-1.085h0.992c3.852,0,6.986-2.434,6.986-5.467c0-3.033-3.091-5.617-6.901-5.617h-4.191v-8.217h2.048
		v-1.33h-3.158V187.332z"/>
</g>
</svg>
