<?xml version="1.0" encoding="utf-8"?>
<!-- Generator: Adobe Illustrator 17.0.0, SVG Export Plug-In . SVG Version: 6.00 Build 0)  -->
<!DOCTYPE svg PUBLIC "-//W3C//DTD SVG 1.1//EN" "http://www.w3.org/Graphics/SVG/1.1/DTD/svg11.dtd">
<svg version="1.1" id="Слой_1" xmlns="http://www.w3.org/2000/svg" xmlns:xlink="http://www.w3.org/1999/xlink" x="0px" y="0px"
	 width="18.989px" height="28.396px" viewBox="0 0 18.989 28.396" enable-background="new 0 0 18.989 28.396" xml:space="preserve">
<g>
	<g>
		<path fill="#FFFFFF" d="M9.142,2.652c3.608,0,6.543,2.935,6.543,6.543v8.831c0,3.608-2.935,6.543-6.543,6.543
			s-6.543-2.935-6.543-6.543V9.195C2.599,5.588,5.534,2.652,9.142,2.652 M9.142,1.111L9.142,1.111c-4.465,0-8.085,3.62-8.085,8.085
			v8.831c0,4.465,3.62,8.085,8.085,8.085l0,0c4.465,0,8.085-3.62,8.085-8.085V9.195C17.226,4.73,13.607,1.111,9.142,1.111
			L9.142,1.111z"/>
	</g>
</g>
</svg>
